<?xml version="1.0" encoding="UTF-8"?>
<svg xmlns="http://www.w3.org/2000/svg" viewBox="0 0 512 512" width="512" height="512">
  <defs>
    <linearGradient id="wGradient" x1="0%" y1="50%" x2="100%" y2="50%">
      <stop offset="0%" style="stop-color:#00BFFF;stop-opacity:1" />
      <stop offset="50%" style="stop-color:#4169E1;stop-opacity:1" />
      <stop offset="100%" style="stop-color:#9B59B6;stop-opacity:1" />
    </linearGradient>
  </defs>
  <path d="M169.50,286.34 C150.04,282.17 132.96,262.93 121.72,232.50 C117.69,221.60 112.17,202.40 110.61,193.87 C109.86,189.81 107.48,179.06 104.86,168.00 C99.11,143.74 93.86,131.80 84.77,122.34 L78.78,116.10 L82.14,114.04 C87.38,110.81 98.09,108.00 105.11,108.00 C111.72,108.00 122.40,110.55 127.56,113.35 C134.68,117.22 145.41,129.36 151.02,139.88 C152.80,143.23 154.64,145.72 155.11,145.43 C156.61,144.50 159.93,146.97 161.63,150.28 C163.94,154.77 171.08,165.72 179.26,177.33 C186.55,187.64 191.57,191.80 201.03,195.31 C208.68,198.16 209.30,197.87 215.28,188.75 C222.60,177.59 227.55,171.83 234.04,166.90 C242.32,160.63 247.17,158.77 255.41,158.74 C269.49,158.67 280.86,167.11 292.67,186.39 C299.40,197.39 299.71,197.44 308.07,189.07 C313.79,183.34 318.15,176.54 326.70,160.00 C336.99,140.07 350.64,123.19 361.39,117.09 C375.35,109.17 394.10,108.95 409.07,116.54 C413.42,118.74 414.23,119.79 419.39,129.86 C423.76,138.41 433.00,162.72 433.00,165.68 C433.00,165.97 432.33,165.95 431.50,165.64 C430.68,165.32 430.00,165.53 430.00,166.09 C430.00,166.66 429.50,166.81 428.89,166.43 C428.12,165.96 428.18,165.50 429.11,164.93 C429.84,164.48 430.06,163.75 429.58,163.30 C429.11,162.86 428.53,163.06 428.28,163.75 C427.70,165.38 426.48,165.33 424.76,163.62 C419.87,158.73 406.27,154.73 394.08,154.60 L384.67,154.50 L383.84,157.50 C382.46,162.50 383.19,163.00 391.84,163.00 C400.37,163.00 406.00,163.80 406.00,165.00 C406.00,165.42 404.05,165.34 401.66,164.83 C399.27,164.32 393.99,164.04 389.91,164.20 L382.51,164.50 L381.19,170.00 C378.78,180.04 376.78,187.42 374.38,195.20 C373.07,199.44 372.00,203.41 372.00,204.01 C372.00,204.62 369.48,211.50 366.40,219.31 C351.27,257.65 337.68,275.92 319.66,282.15 C306.70,286.63 291.95,282.25 280.50,270.52 C275.84,265.75 265.00,251.03 265.00,249.48 C265.00,247.59 258.29,240.68 254.66,238.83 C249.53,236.21 244.56,236.03 239.79,238.30 C235.93,240.13 234.67,241.49 220.04,259.67 C207.34,275.47 198.25,282.50 186.50,285.64 C181.71,286.92 173.74,287.25 169.50,286.34 Z" fill="url(#wGradient)"/>
</svg>